<svg width="759" height="714" viewBox="0 0 759 714" fill="none" xmlns="http://www.w3.org/2000/svg">
<g clip-path="url(#clip0_2_46)">
<path d="M115.77 322.49C115.85 320.5 116.01 318.5 116.01 316.51C115.89 248.37 115.74 180.23 115.64 112.09C115.63 104.6 116.12 97.09 115.92 89.61C115.82 86.01 117.56 86.01 120.15 86.07C139.28 86.53 158.37 87.35 177.45 89.19C198.79 91.24 219.88 94.56 240.67 99.57C283.2 109.81 322.35 126.73 354.2 157.95C360.43 164.05 363.67 170.25 363 179.3C362.12 191.06 362.57 202.95 362.88 214.77C362.99 218.84 361.81 220.53 357.84 221.5C340.43 225.75 325.66 234.6 314 248.25C305.15 258.6 298.92 270.44 296.08 283.82C295.24 287.77 293.67 289.09 289.53 288.95C277.38 288.51 265.22 288.52 253.06 288.48C248.05 288.46 243.09 289.11 238.59 291.51C233.02 294.49 230.2 300.15 231.09 306.02C232.03 312.18 237.01 317.27 243.02 318.55C247.8 319.56 252.61 319.44 257.44 319.44C268.6 319.43 279.77 319.53 290.93 319.36C293.88 319.31 295.21 320.06 296.04 323.09C305.01 355.61 325.34 377 358.25 385.77C361.65 386.67 363.26 387.92 362.92 391.73C362.57 395.68 363.02 399.7 363.11 403.68C354.39 408.86 344.4 410.38 334.95 413.46C285.06 429.71 234.4 442.65 182.2 448.95C160.21 451.61 138.15 453.14 115.98 452.11C115.94 415.55 115.9 378.99 115.86 342.43C115.83 335.78 115.8 329.13 115.77 322.48V322.49ZM167.08 144.5C165.41 144.5 163.73 144.33 162.09 144.53C158.26 145.01 155.44 146.9 155.03 151.01C154.64 154.99 157.23 157.13 160.57 158.32C162.42 158.98 164.47 159.2 166.45 159.37C178.55 160.38 190.66 161.24 202.61 163.48C235.96 169.72 268.46 178.49 297.79 196.37C302.19 199.05 306.37 202.13 310.85 204.67C314.45 206.71 318.12 206.1 320.71 202.8C323.26 199.54 321.88 196.48 319.16 193.98C317.21 192.18 315.21 190.37 312.98 188.95C268.49 160.55 218.99 148.59 167.07 144.51L167.08 144.5ZM168.11 321.48C166.43 321.48 164.04 321.16 161.78 321.56C158.31 322.17 155.53 324.04 155 327.88C154.47 331.73 157.01 333.65 160.08 334.96C162.71 336.08 165.53 336.32 168.39 336.37C172.87 336.46 177.35 336.13 181.82 337.01C190.54 338.72 190.9 339.07 190.93 348.07C190.96 356.81 192.67 359.12 201.11 360.47C231.06 365.28 259.77 373.54 285.72 389.87C291.95 393.79 296.31 393.51 298.83 389.47C301.01 385.98 299.37 381.97 293.77 377.96C287.25 373.3 280.03 369.83 272.81 366.47C253.88 357.67 234.17 351.32 213.46 348.21C204.27 346.83 204.28 346.71 204.07 337.67C203.89 330.39 200.38 326.24 192.96 324.45C185.01 322.54 176.93 321.72 168.12 321.46L168.11 321.48ZM163.23 188.66C158.91 188.59 154.99 191.2 154.9 195.54C154.81 199.74 158.74 202.91 164.74 203.48C164.91 203.5 165.07 203.48 165.24 203.5C173.02 204.16 180.83 204.56 188.58 205.52C214.1 208.69 239.01 214.31 262.66 224.7C267.68 226.91 272.56 229.44 277.59 231.62C282.23 233.63 285.91 232.56 287.98 228.79C290.25 224.66 287.34 222.18 284.72 219.9C282.86 218.29 280.67 216.95 278.43 215.9C242.56 199.06 204.67 190.6 163.23 188.64V188.66ZM167.88 382.69C165.88 382.69 163.87 382.51 161.9 382.73C157.61 383.21 155.46 386.02 155.01 390.04C154.58 393.88 156.95 395.92 160.42 396.62C168.27 398.19 176.27 397.94 184.21 398.4C199.02 399.25 213.54 401.87 227.9 405.46C238.55 408.13 248.85 411.88 259.07 415.87C264.12 417.84 268.51 416.63 270.38 413.08C272.13 409.77 270.44 406.36 265.13 403.24C262.13 401.48 259 399.79 255.72 398.68C227.23 389.04 198.07 383 167.87 382.69H167.88ZM170.36 232.38C167.36 232.38 164.32 232.06 161.38 232.46C157.46 232.99 155.31 235.58 154.98 239.59C154.66 243.47 156.76 245.54 160.25 246.31C162.84 246.88 165.5 247.33 168.14 247.39C187.86 247.89 207.2 250.88 226.24 255.97C235.73 258.51 244.99 261.73 254.21 265.09C258.14 266.52 261.09 264.9 263.1 261.55C265.24 257.99 263.1 255.44 260.47 253.47C258.36 251.89 255.98 250.59 253.56 249.55C244.67 245.73 235.39 243.17 225.98 240.94C207.67 236.58 189.23 233.14 170.37 232.39L170.36 232.38ZM170.87 277.31C168.38 277.31 165.88 277.24 163.39 277.32C159.27 277.45 155.65 278.53 155.06 283.37C154.56 287.52 157.75 290.71 162.85 291.25C173.07 292.32 183.36 292.62 193.57 294.08C197.42 294.63 200.68 292.28 201.82 288.27C202.91 284.44 200.31 282.4 197.35 280.92C195.89 280.19 194.25 279.72 192.63 279.43C185.44 278.13 178.2 277.26 170.87 277.32V277.31Z" fill="#011E38"/>
<path d="M393.96 392.44C393.15 388.36 394.9 387.16 398.94 385.97C430.26 376.71 450.8 356.33 459.88 324.85C461.09 320.64 462.57 319.16 467.12 319.3C480.1 319.69 493.11 319.56 506.1 319.39C511.41 319.32 516.75 318.87 520.78 314.53C524.73 310.28 526.21 305.43 524.4 299.9C522.5 294.1 518.57 290.49 512.38 289.35C507.58 288.46 502.8 288.65 497.97 288.75C486.98 288.98 475.98 288.79 464.99 288.89C462.41 288.92 461.46 288.19 460.74 285.45C452.04 251.98 431.27 230.21 397.6 221.26C394.72 220.5 393.84 219.2 393.87 216.22C394.04 201.56 394.1 186.9 393.85 172.24C393.78 168.22 395.12 165.41 397.73 162.56C412.28 146.69 429.4 134.28 448.39 124.31C477.53 109.02 508.69 100.11 540.95 94.37C572.16 88.81 603.62 86.8 635.24 86.38C639.1 86.33 640.19 87.26 640.13 91.22C639.92 104.7 640.15 118.19 640.21 131.67C639.7 137.24 639.82 142.81 640.15 148.39C640.11 187.79 640.06 227.19 640.02 266.58C639.4 268.08 637.99 268.73 636.77 269.57C567.23 317.56 492.95 356.47 413.69 385.81C407.19 388.22 400.95 391.48 393.95 392.44H393.96ZM559.27 225.2C559.26 206.68 544.92 192.51 526.14 192.46C508.85 192.41 494.03 207.34 494.05 224.8C494.06 242.78 508.98 257.69 526.85 257.58C544.93 257.47 559.29 243.13 559.27 225.2ZM592.03 143.61C574.14 145.13 557.09 146.49 540.2 149.43C504.33 155.68 470.37 167.11 439.04 185.93C436.44 187.49 434.06 189.22 432.2 191.63C430.27 194.12 428.78 196.8 430.88 199.8C433.15 203.04 436.51 203.01 439.87 201.97C441.27 201.54 442.55 200.64 443.81 199.85C457.82 191.08 472.74 184.22 488.17 178.38C517.63 167.23 548.14 161.24 579.51 159.07C584.78 158.71 590.17 159.39 595.36 157.78C598.57 156.78 601.44 155.14 601.58 151.51C601.73 147.66 598.93 145.62 595.56 144.47C594.16 143.99 592.68 143.77 592.03 143.61ZM585.09 270.4C590.79 270.56 594.78 270.57 598.29 268.15C602.92 264.97 602.71 259.74 597.83 256.93C593.09 254.2 580.4 255.44 576.39 259.03C572.93 262.12 573.13 265.72 576.74 268.73C579.8 271.27 583.37 270.27 585.09 270.4ZM586.89 214.53C586.89 214.59 586.9 214.65 586.91 214.71C589.55 214.45 592.25 214.44 594.82 213.86C598.5 213.02 601.32 211.05 601.02 206.68C600.72 202.29 597.87 200.13 593.87 199.66C589.39 199.13 584.83 199.52 580.49 200.7C577.1 201.62 574.27 204.01 574.53 207.76C574.81 211.88 577.71 214.19 581.9 214.52C583.56 214.65 585.23 214.54 586.9 214.54L586.89 214.53ZM462.14 237.38C467.11 237.39 471.79 233.21 471.95 228.6C472.08 225.04 468.66 221.73 464.88 221.75C459.7 221.79 454.76 226.3 454.82 230.94C454.88 234.83 457.76 237.37 462.14 237.38Z" fill="#021E37"/>
<path d="M639.89 303.16C639.91 360.61 639.89 418.06 640.05 475.51C640.06 479.38 638.62 479.67 635.47 479.63C613.32 479.37 591.18 479.58 569.08 481.41C524.62 485.08 481.7 494.47 442.35 516.51C422.68 527.53 404.41 540.51 388.97 557.15C388.63 557.52 388.29 557.88 387.94 558.24C379.79 566.54 376.83 566.64 368.64 558.49C352.53 542.45 334.9 528.35 315.11 517.11C285.88 500.51 254.36 490.59 221.26 485.45C204.82 482.89 188.29 480.98 171.7 479.83C172.23 477.5 174.25 478.39 175.56 478.26C195.53 476.18 215.3 473.02 234.94 468.75C246.26 466.29 257.39 462.72 269.07 462.08C274.47 464.23 279.89 466.32 285.26 468.53C319.71 482.74 350.51 502.22 374.69 531.06C377.47 534.38 378.6 534.51 381.46 531.19C397.82 512.27 417.03 496.72 438.76 484.36C479.1 461.41 522.88 450.3 568.9 447.22C577.03 446.68 585.2 446.66 593.34 446.23C597.92 445.98 601.23 442.75 601.16 438.82C601.08 434.06 597.91 432.18 593.78 431.54C591.66 431.21 589.46 431.21 587.3 431.28C559.46 432.17 531.98 435.76 504.93 442.48C464.72 452.47 427.69 468.87 396.08 496.25C395.55 496.71 394.98 497.62 393.78 496.72V423.98C395.47 421.9 398.04 421.45 400.33 420.6C407.96 417.76 415.69 415.17 423.31 412.28C495.86 384.74 565.39 351.15 630.45 308.63C633.47 306.65 636.21 304.09 639.87 303.19L639.89 303.16ZM577.31 400.12C582.47 400.12 587.62 400.33 592.75 399.51C598.27 398.62 601.32 395.78 601.06 391.39C600.82 387.39 597.4 384.6 592.11 384.6C588.13 384.6 584.16 385.12 580.18 385.42C562.12 386.79 544.12 388.64 526.37 392.41C520.53 393.65 514.65 394.9 509.37 397.92C506.13 399.77 504.51 402.37 505.77 406.22C507.03 410.08 509.82 411.24 513.56 410.65C515.85 410.29 518.14 409.88 520.38 409.3C539.07 404.46 557.95 400.78 577.31 400.13V400.12Z" fill="#021E37"/>
<path d="M269.08 462.06C257.4 462.7 246.27 466.27 234.95 468.73C215.31 473 195.54 476.16 175.57 478.24C174.25 478.38 172.24 477.48 171.71 479.81C147.96 480.86 124.23 482.87 100.46 481.26C82.69 480.06 65.24 476.97 49 469.21C25.13 457.81 17.24 437.47 27.21 413.01C33.83 396.77 44.47 383.17 56.36 370.51C72.02 353.83 89.56 339.33 108.45 326.45C110.75 324.88 112.91 323.02 115.77 322.47C115.8 329.12 115.83 335.77 115.86 342.42C100.2 354.16 86.23 367.63 74.25 383.13C68.52 390.55 63.77 398.51 60.81 407.49C55.63 423.18 61.29 437.14 76.18 444.08C88.76 449.94 102.26 451.68 115.99 452.1C138.16 453.13 160.22 451.59 182.21 448.94C234.41 442.63 285.07 429.69 334.96 413.45C344.41 410.37 354.4 408.85 363.12 403.67C373.41 399.92 383.69 396.18 393.98 392.43C400.98 391.47 407.22 388.21 413.72 385.8C492.97 356.45 567.25 317.54 636.8 269.56C638.02 268.72 639.43 268.07 640.05 266.57C640.78 266.23 641.61 266.03 642.23 265.55C655.33 255.29 668.04 244.56 679.77 232.75C690.01 222.45 699.26 211.34 704.89 197.71C711.79 181.01 707.41 167.91 691.99 158.55C687.25 155.67 682.11 153.8 676.78 152.5C664.76 149.57 652.48 148.88 640.18 148.39C639.85 142.82 639.73 137.24 640.24 131.67C648.46 129.91 656.82 130.36 665.1 130.62C681.84 131.16 698.62 132.17 714.39 138.6C729.03 144.56 741.53 152.98 745.17 169.8C747.49 180.53 745.65 190.88 741.27 200.83C732.45 220.85 718.09 236.77 702.76 251.81C684.22 270.01 663.77 285.96 642.61 301.01C641.67 301.68 640.81 302.45 639.91 303.18C636.25 304.08 633.51 306.64 630.49 308.62C565.43 351.14 495.91 384.74 423.35 412.27C415.73 415.16 408.01 417.75 400.37 420.59C398.07 421.45 395.5 421.89 393.82 423.97C383.24 427.62 372.67 431.27 362.09 434.91C347.8 439.19 333.49 443.42 319.22 447.78C310.69 450.39 301.61 451.16 293.58 455.46C285.52 458.03 276.99 458.86 269.1 462.07L269.08 462.06Z" fill="#F79606"/>
<path d="M377.17 366.27C343.37 366.13 314.93 337.11 315.37 303.23C315.82 269.05 343.95 240.72 377.39 240.78C412.49 240.84 441.06 269.28 440.77 303.85C440.47 338.37 411.9 366.41 377.17 366.27Z" fill="#F79606"/>
<path d="M376.88 41.19C390.65 41.58 400.28 47.14 405.76 58.41C411.21 69.62 410.89 81.08 401.82 90.33C395.19 97.09 393.59 104.52 394.14 113.38C394.6 120.82 394.9 128.37 393.2 135.74C391.63 142.53 386.13 147.18 379.56 147.51C371.34 147.93 366.49 144.79 363.92 137.28C362.67 133.64 362.11 129.85 362.04 126.01C361.96 121.52 361.69 116.99 362.13 112.54C362.98 103.99 360.92 97.13 354.72 90.52C346.22 81.46 345.4 70.2 350.71 58.95C356.11 47.53 365.67 42.11 376.87 41.18L376.88 41.19Z" fill="#021E37"/>
<path d="M279.32 34.73C279.23 54.06 263.66 69.14 243.95 69C225.25 68.87 210.05 53.14 210.23 34.13C210.42 15.67 226.37 -0.26 244.38 0C264.29 0.3 279.41 15.32 279.32 34.72V34.73Z" fill="#021E37"/>
<path d="M724.99 371.51C724.92 387.37 711.97 399.71 695.51 399.6C680.69 399.5 668.04 386.1 668.27 370.75C668.51 355.31 681.46 342.76 697.02 342.89C712.49 343.03 725.06 355.89 724.99 371.5V371.51Z" fill="#021E37"/>
<path d="M30.82 275.38C30.84 260.63 43.36 248.43 58.48 248.43C73.06 248.43 85.32 260.74 85.46 275.51C85.6 290.27 73.3 303.23 59.1 303.27C43.15 303.32 30.79 291.14 30.81 275.37L30.82 275.38Z" fill="#021E37"/>
<path d="M379.92 1.05C416.58 0.9 451.94 7.91 486.33 20.23C488.34 20.95 490.4 21.8 492.12 23.03C494.16 24.49 494.99 26.73 493.94 29.22C492.93 31.63 491.07 32.78 488.4 32.49C485.55 32.18 482.96 31.07 480.36 29.98C455.42 19.47 429.05 14.97 402.37 12.59C368.3 9.55 334.59 12.63 301.41 21.09C297.68 22.04 294.46 21.39 293.37 17.45C292.2 13.19 295.51 11.34 298.83 10.54C311.12 7.58 323.55 5.23 336.1 3.81C350.65 2.17 365.25 0.89 379.91 1.06L379.92 1.05Z" fill="#052039"/>
<path d="M529.23 67.45C515.66 67 504.75 55.47 505.11 41.94C505.46 28.6 517.1 17.95 530.95 18.31C544.05 18.64 555.17 30.61 554.55 43.7C553.91 57.09 542.4 67.89 529.23 67.45Z" fill="#021E37"/>
<path d="M22.7 360.63C22.98 347.6 24.21 334.03 26.02 320.5C26.33 318.19 26.72 315.91 27.74 313.78C28.83 311.5 30.31 309.89 33.15 310.49C36.07 311.11 37.43 312.94 37.11 315.86C36.73 319.32 36.31 322.79 35.69 326.21C33.07 340.7 32.44 355.28 33.34 369.95C33.51 372.76 33.41 375.59 33.32 378.41C33.22 381.56 31.95 384.2 28.51 384.27C25.13 384.34 23.55 381.71 23.18 378.69C22.47 372.91 22.22 367.08 22.68 360.63H22.7Z" fill="#052039"/>
<path d="M63.54 236.46C60.51 236.6 59 235.13 58.91 232.35C58.86 230.88 58.88 229.26 59.45 227.95C66.59 211.34 76.46 196.44 88.19 182.73C90.39 180.16 92.99 180.47 95.32 182.08C97.91 183.87 97.95 186.55 96.42 189.16C95.67 190.44 94.77 191.69 93.72 192.72C87.25 199.1 82.57 206.76 78.15 214.58C74.8 220.5 71.93 226.68 68.68 232.65C67.6 234.64 66.32 236.81 63.55 236.46H63.54Z" fill="#052039"/>
<path d="M708.74 322.69C708.74 323.29 708.77 324.29 708.74 325.28C708.62 328.52 707.22 330.78 703.75 330.88C700.39 330.98 698.43 329.03 698.13 325.79C697.75 321.66 697.69 317.5 697.5 313.36C696.96 301.72 694.99 290.29 692.59 278.92C692.32 277.63 692.06 276.3 692.06 274.99C692.08 272.28 693.08 269.94 695.96 269.38C698.9 268.81 701.25 270 702.09 273.08C703.01 276.43 703.93 279.79 704.51 283.21C706.71 296.15 707.98 309.19 708.74 322.69Z" fill="#052039"/>
<path d="M693.83 419.03C693.6 419.83 693.33 420.96 692.97 422.06C688.9 434.39 683.47 446.11 676.88 457.29C675.4 459.79 673.71 462.25 670.18 460.74C666.52 459.18 666.69 456.27 667.83 453.2C668.58 451.19 669.4 449.17 670.44 447.3C674.95 439.15 678.89 430.76 681.79 421.9C682.57 419.53 683.41 417.19 685.01 415.23C686.59 413.29 688.59 412.95 690.82 413.98C692.83 414.9 693.9 416.44 693.83 419.04V419.03Z" fill="#052039"/>
<path d="M682.51 584.25C688.98 584.51 693.85 589.61 693.54 595.82C693.22 602.23 688.16 606.81 681.68 606.56C675.5 606.33 670.61 600.88 670.98 594.65C671.35 588.42 676.25 584 682.51 584.25Z" fill="#052039"/>
<path d="M644.7 524.1C644.82 529.38 640.32 533.88 634.9 533.91C629.54 533.93 625.04 529.56 624.92 524.2C624.81 519.04 629.04 514.54 634.14 514.39C639.75 514.23 644.57 518.67 644.69 524.1H644.7Z" fill="#052039"/>
<path d="M149.05 524.23C149.06 529.63 144.73 533.85 139.12 533.91C133.67 533.97 129.34 529.55 129.41 524.02C129.48 518.72 134.12 514.17 139.39 514.24C144.77 514.32 149.04 518.73 149.05 524.23Z" fill="#052039"/>
<path d="M314.82 69.69C314.96 74.62 310.85 79.24 306.11 79.48C300.46 79.77 295.57 75.5 295.32 70.05C295.09 65.01 299.45 60.42 304.56 60.31C310.06 60.2 314.67 64.41 314.82 69.68V69.69Z" fill="#052039"/>
<path d="M472.33 76.13C472.22 81.46 467.6 85.72 462.23 85.47C457.03 85.22 452.91 80.82 453.06 75.67C453.2 70.55 457.6 66.3 462.7 66.35C468.26 66.41 472.45 70.66 472.34 76.13H472.33Z" fill="#052039"/>
<path d="M167.08 144.5C219 148.59 268.5 160.54 312.99 188.94C315.21 190.36 317.21 192.17 319.17 193.97C321.89 196.47 323.26 199.54 320.72 202.79C318.13 206.1 314.46 206.7 310.86 204.66C306.38 202.12 302.21 199.05 297.8 196.36C268.47 178.48 235.98 169.71 202.62 163.47C190.67 161.23 178.55 160.37 166.46 159.36C164.48 159.19 162.43 158.97 160.58 158.31C157.23 157.13 154.64 154.98 155.04 151C155.45 146.89 158.27 145 162.1 144.52C163.74 144.31 165.43 144.49 167.09 144.49L167.08 144.5Z" fill="#047AE2"/>
<path d="M168.11 321.48C176.91 321.74 184.99 322.56 192.95 324.47C200.37 326.25 203.88 330.41 204.06 337.69C204.28 346.72 204.26 346.84 213.45 348.23C234.16 351.35 253.87 357.69 272.8 366.49C280.03 369.85 287.25 373.32 293.76 377.98C299.37 381.98 301.01 386 298.82 389.49C296.29 393.53 291.94 393.81 285.71 389.89C259.77 373.56 231.05 365.3 201.1 360.49C192.66 359.13 190.95 356.83 190.92 348.09C190.89 339.08 190.53 338.74 181.81 337.03C177.34 336.15 172.86 336.48 168.38 336.39C165.52 336.33 162.71 336.1 160.07 334.98C156.99 333.67 154.46 331.75 154.99 327.9C155.52 324.06 158.29 322.19 161.77 321.58C164.03 321.18 166.41 321.5 168.1 321.5L168.11 321.48Z" fill="#047AE2"/>
<path d="M163.23 188.66C204.66 190.62 242.56 199.08 278.43 215.92C280.67 216.97 282.86 218.31 284.72 219.92C287.34 222.2 290.25 224.68 287.98 228.81C285.91 232.58 282.23 233.65 277.59 231.64C272.56 229.46 267.68 226.92 262.66 224.72C239.01 214.32 214.1 208.71 188.58 205.54C180.84 204.58 173.02 204.18 165.24 203.52C165.07 203.51 164.91 203.52 164.74 203.5C158.74 202.93 154.81 199.76 154.9 195.56C154.99 191.22 158.91 188.61 163.23 188.68V188.66Z" fill="#047AE2"/>
<path d="M167.88 382.68C198.07 383 227.24 389.04 255.73 398.67C259.01 399.78 262.14 401.47 265.14 403.23C270.45 406.35 272.13 409.77 270.39 413.07C268.51 416.62 264.13 417.84 259.08 415.86C248.86 411.87 238.56 408.11 227.91 405.45C213.56 401.86 199.03 399.24 184.22 398.39C176.28 397.93 168.28 398.19 160.43 396.61C156.96 395.92 154.6 393.87 155.02 390.03C155.47 386.01 157.62 383.19 161.91 382.72C163.88 382.5 165.9 382.68 167.89 382.68H167.88Z" fill="#047AE2"/>
<path d="M170.36 232.38C189.22 233.13 207.65 236.57 225.97 240.93C235.38 243.17 244.66 245.72 253.55 249.54C255.97 250.58 258.36 251.89 260.46 253.46C263.1 255.44 265.23 257.98 263.09 261.54C261.08 264.88 258.13 266.51 254.2 265.08C244.98 261.72 235.72 258.49 226.23 255.96C207.19 250.87 187.85 247.88 168.13 247.38C165.49 247.31 162.83 246.87 160.24 246.3C156.76 245.53 154.66 243.46 154.97 239.58C155.3 235.57 157.45 232.99 161.37 232.45C164.31 232.05 167.36 232.37 170.35 232.37L170.36 232.38Z" fill="#047AE2"/>
<path d="M170.87 277.31C178.2 277.25 185.44 278.12 192.63 279.42C194.24 279.71 195.89 280.18 197.35 280.91C200.31 282.4 202.91 284.43 201.82 288.26C200.68 292.27 197.42 294.62 193.57 294.07C183.36 292.61 173.08 292.32 162.85 291.24C157.75 290.71 154.56 287.51 155.06 283.36C155.65 278.52 159.27 277.44 163.39 277.31C165.88 277.23 168.37 277.3 170.87 277.31Z" fill="#047AE2"/>
<path d="M559.27 225.2C559.28 243.13 544.93 257.47 526.85 257.58C508.99 257.69 494.07 242.78 494.05 224.8C494.04 207.34 508.85 192.41 526.14 192.46C544.92 192.51 559.25 206.68 559.27 225.2Z" fill="#F79606"/>
<path d="M592.03 143.61C592.68 143.76 594.16 143.99 595.56 144.47C598.93 145.63 601.73 147.66 601.58 151.51C601.44 155.13 598.57 156.78 595.36 157.78C590.18 159.39 584.78 158.7 579.51 159.07C548.14 161.24 517.63 167.23 488.17 178.38C472.73 184.22 457.82 191.09 443.81 199.85C442.54 200.64 441.27 201.54 439.87 201.97C436.51 203.01 433.15 203.04 430.88 199.8C428.78 196.8 430.28 194.12 432.2 191.63C434.06 189.22 436.45 187.49 439.04 185.93C470.36 167.11 504.33 155.69 540.2 149.43C557.09 146.48 574.14 145.12 592.03 143.61Z" fill="#047AE2"/>
<path d="M585.08 270.4C583.37 270.27 579.79 271.27 576.73 268.73C573.11 265.72 572.92 262.12 576.38 259.03C580.39 255.45 593.08 254.21 597.82 256.93C602.7 259.74 602.91 264.97 598.28 268.15C594.77 270.56 590.78 270.55 585.08 270.4Z" fill="#047AE2"/>
<path d="M586.88 214.53C585.21 214.53 583.54 214.64 581.88 214.51C577.69 214.18 574.8 211.87 574.51 207.75C574.25 203.99 577.08 201.61 580.47 200.69C584.81 199.51 589.37 199.13 593.85 199.65C597.85 200.12 600.7 202.28 601 206.67C601.3 211.03 598.48 213.01 594.8 213.85C592.23 214.43 589.53 214.44 586.89 214.7C586.89 214.64 586.88 214.58 586.87 214.52L586.88 214.53Z" fill="#047AE2"/>
<path d="M462.13 237.38C457.75 237.37 454.87 234.83 454.81 230.94C454.74 226.3 459.68 221.79 464.87 221.75C468.65 221.72 472.07 225.03 471.94 228.6C471.78 233.22 467.1 237.4 462.13 237.38Z" fill="#047AE2"/>
<path d="M577.31 400.12C557.95 400.77 539.07 404.45 520.38 409.29C518.14 409.87 515.85 410.28 513.56 410.64C509.82 411.23 507.03 410.07 505.77 406.21C504.51 402.36 506.14 399.77 509.37 397.91C514.65 394.89 520.53 393.64 526.37 392.4C544.11 388.63 562.12 386.79 580.18 385.41C584.15 385.11 588.13 384.59 592.11 384.59C597.4 384.59 600.82 387.39 601.06 391.38C601.32 395.77 598.27 398.61 592.75 399.5C587.62 400.32 582.47 400.12 577.31 400.11V400.12Z" fill="#047AE2"/>
<path d="M362.07 434.91C362.95 446.53 362.22 458.17 362.36 469.79C362.47 478.89 362.38 488 362.38 498.14C357.8 494.45 354.03 491.33 350.17 488.34C335.14 476.7 319.19 466.62 301.45 459.56C298.7 458.46 295.9 457.39 293.57 455.46C301.59 451.17 310.67 450.39 319.21 447.78C333.48 443.42 347.79 439.19 362.08 434.91H362.07Z" fill="#021E37"/>
<path d="M679.26 214.27C678.88 217.04 677.05 219.24 673.66 219.5C670.12 219.76 665.55 213.69 665.88 209.39C666.13 206.11 667.84 204.19 671.3 204.29C675.09 204.4 679.4 209.51 679.26 214.27Z" fill="#052039"/>
</g>
<defs>
<clipPath id="clip0_2_46">
<rect width="758.04" height="713.81" fill="white"/>
</clipPath>
</defs>
</svg>
