<?xml version="1.0" encoding="UTF-8"?>
<svg width="18" height="18" viewBox="0 0 48 48" xmlns="http://www.w3.org/2000/svg" aria-hidden="true">
  <path fill="#FFC107" d="M43.611 20.083H42V20H24v8h11.303c-1.65 4.657-6.08 8-11.303 8-6.627 0-12-5.373-12-12s5.373-12 12-12c3.059 0 5.842 1.153 7.957 3.043l5.657-5.657C34.046 6.053 29.268 4 24 4 12.954 4 4 12.954 4 24s8.954 20 20 20c11.046 0 20-8.954 20-20 0-1.341-.138-2.651-.389-3.917z"/>
  <path fill="#FF3D00" d="M6.306 14.691l6.571 4.817C14.308 16.108 18.82 12 24 12c3.059 0 5.842 1.153 7.957 3.043l5.657-5.657C34.046 6.053 29.268 4 24 4 16.318 4 9.656 8.337 6.306 14.691z"/>
  <path fill="#4CAF50" d="M24 44c5.164 0 9.86-1.977 13.409-5.197l-6.19-5.238C29.23 35.091 26.773 36 24 36c-5.205 0-9.648-3.317-11.31-7.957l-6.527 5.027C9.464 39.556 16.18 44 24 44z"/>
  <path fill="#1976D2" d="M43.611 20.083H42V20H24v8h11.303c-.792 2.233-2.237 4.157-4.093 5.565l.003-.002 6.19 5.238C39.013 40.267 44 33.818 44 24c0-1.341-.138-2.651-.389-3.917z"/>
</svg>