<svg version="1.1" xmlns="http://www.w3.org/2000/svg" style="display: block;" viewBox="0 0 2048 2048" width="1024" height="1024">
<path transform="translate(0,0)" fill="rgb(255,255,254)" d="M 0 0 L 2048 0 L 2048 2048 L 0 2048 L 0 0 z"/>
<path transform="translate(0,0)" fill="rgb(0,29,56)" d="M 484.275 467.707 C 643.411 468.974 844.264 493.225 961.752 612.863 C 967.081 618.29 972.06 623.966 976.926 629.807 L 976.869 735.203 C 930.105 745.192 891.527 770.382 865.272 810.753 C 853.093 829.48 845.401 850.673 841.353 872.572 C 820.071 872.747 798.788 872.742 777.506 872.555 C 765.151 872.511 750.748 871.058 738.718 873.864 C 732.132 875.401 725.834 878.69 721.172 883.64 C 715.815 889.328 713.408 896.637 713.7 904.396 C 714.065 912.506 717.695 920.123 723.765 925.514 C 728.284 929.6 733.317 931.753 739.239 932.939 C 751.388 935.373 765.409 934.075 777.8 934.039 L 841.542 933.792 C 851.698 980.321 877.993 1020.04 918.281 1046 C 936.482 1057.73 955.885 1064.85 976.969 1069.39 L 977.021 1104 C 997.745 1096.16 1018.79 1087.71 1039.99 1081.32 L 1039.89 1069.85 C 1059.99 1065.84 1079.2 1058.21 1096.57 1047.33 C 1138.52 1020.88 1164.66 982.056 1175.52 933.936 L 1239.86 934.122 C 1252.09 934.146 1265.63 935.292 1277.68 933.174 C 1283.05 932.229 1287.71 930.01 1291.88 926.484 C 1298.29 921.056 1302.77 912.997 1303.01 904.504 C 1303.25 895.956 1299.44 887.563 1293.37 881.643 C 1289.63 878.008 1285.01 875.243 1279.93 873.992 C 1266.86 870.772 1250.28 872.616 1236.81 872.652 C 1216.38 872.707 1195.96 872.631 1175.54 872.424 C 1171.11 850.547 1163.36 830.099 1151.39 811.199 C 1125.44 770.246 1086.98 745.135 1040 734.79 L 1039.98 629.914 C 1044.73 623.214 1050.81 617.186 1056.59 611.385 C 1174.26 493.228 1373.44 468.371 1532.22 467.87 C 1532.02 497.906 1531.98 527.943 1532.09 557.979 C 1591.32 555.398 1673.67 553.542 1719.88 596.237 C 1735.17 610.362 1743.62 629.418 1744.18 650.196 C 1745.52 699.785 1703.99 750.443 1671.11 784.652 C 1638.48 818.594 1601.44 848.905 1563.82 877.089 C 1553.66 884.696 1543.15 893.611 1532.06 899.757 L 1531.97 1129.82 C 1531.98 1171.4 1531.51 1213.03 1532.16 1254.6 C 1492.14 1254.78 1452.02 1254.31 1412.05 1256.47 C 1321.93 1261.36 1230.79 1279.5 1150.01 1320.97 C 1123.73 1334.76 1098.66 1350.72 1075.04 1368.69 C 1063.52 1377.61 1052.33 1387.49 1041.92 1397.68 C 1034.95 1404.49 1028.31 1412.27 1020.71 1418.35 C 1017.8 1420.68 1014.22 1423.19 1010.52 1424.03 C 1002.21 1425.92 992.544 1415.03 987.231 1409.76 C 873.596 1297.1 744.91 1264.4 589.133 1254.67 C 571.543 1254.58 553.878 1256.51 536.302 1257.25 C 489.728 1259.21 440.948 1259.27 395.256 1248.76 C 363.954 1241.56 326.664 1227.45 308.93 1198.71 C 297.501 1180.19 296.523 1158.4 301.629 1137.64 C 319.721 1064.12 421.577 976.975 484.152 938.927 L 484.042 629.692 C 484.032 575.834 482.574 521.523 484.275 467.707 z"/>
<path transform="translate(0,0)" fill="rgb(0,29,56)" d="M 484.275 467.707 C 643.411 468.974 844.264 493.225 961.752 612.863 C 967.081 618.29 972.06 623.966 976.926 629.807 L 976.869 735.203 C 930.105 745.192 891.527 770.382 865.272 810.753 C 853.093 829.48 845.401 850.673 841.353 872.572 C 820.071 872.747 798.788 872.742 777.506 872.555 C 765.151 872.511 750.748 871.058 738.718 873.864 C 732.132 875.401 725.834 878.69 721.172 883.64 C 715.815 889.328 713.408 896.637 713.7 904.396 C 714.065 912.506 717.695 920.123 723.765 925.514 C 728.284 929.6 733.317 931.753 739.239 932.939 C 751.388 935.373 765.409 934.075 777.8 934.039 L 841.542 933.792 C 851.698 980.321 877.993 1020.04 918.281 1046 C 936.482 1057.73 955.885 1064.85 976.969 1069.39 L 977.021 1104 C 961.196 1111.83 928.252 1120.16 909.908 1126.01 C 775.224 1168.98 625.612 1203.5 483.993 1199.95 L 484.016 978.934 L 484.152 938.927 L 484.042 629.692 C 484.032 575.834 482.574 521.523 484.275 467.707 z"/>
<path transform="translate(0,0)" fill="rgb(57,102,138)" d="M 573.793 584.164 C 624.748 585.243 677.268 594.126 726.439 607.271 C 777.221 620.847 828.855 640.7 872.957 669.691 C 880.086 674.378 890.419 680.436 894.486 688.17 C 896.123 691.283 896.481 694.828 895.187 698.127 C 893.192 703.212 888.141 705.394 883.403 707.122 C 881.077 707.087 878.991 707.022 876.835 705.988 C 869.61 702.521 862.555 696.886 855.719 692.594 C 843.104 684.766 830.166 677.472 816.938 670.732 C 800.027 662.225 781.939 655.389 764.102 649.073 C 721.058 634.252 676.622 623.834 631.475 617.98 C 619.285 616.331 580.493 614.49 572.06 611.577 C 567.85 610.122 564.557 607.083 562.676 603.039 C 561.27 600.015 561.235 596.764 562.564 593.709 C 564.764 588.651 568.826 586.041 573.793 584.164 z"/>
<path transform="translate(0,0)" fill="rgb(57,102,138)" d="M 573.904 938.112 C 593.044 938.393 641.903 939.089 654.9 953.011 C 662.04 960.659 660.114 977.267 660.069 987.1 C 674.117 991.342 689.22 992.923 703.562 996.225 C 745.169 1005.54 785.267 1020.63 822.691 1041.06 C 831.697 1045.96 843.927 1051.68 849.271 1060.83 C 851.197 1064.13 852.096 1067.69 850.997 1071.44 C 849.47 1076.65 844.297 1079.03 839.774 1081.05 C 837.618 1080.93 835.457 1080.72 833.422 1079.94 C 825.724 1077.01 818.12 1071.53 810.926 1067.44 C 797.485 1059.79 783.185 1052.26 768.838 1046.5 C 744.362 1036.67 717.598 1028.3 691.728 1022.94 C 677.928 1020.07 663.792 1018.47 650.074 1015.34 C 623.457 1009.28 639.586 986.961 631.023 973.397 C 620.22 965.768 588.98 969.46 575.009 966.094 C 570.311 964.962 565.119 962.755 562.773 958.236 C 561.191 955.191 561.341 951.557 562.417 948.372 C 564.293 942.815 568.868 940.374 573.904 938.112 z"/>
<path transform="translate(0,0)" fill="rgb(57,102,138)" d="M 571.657 673.077 C 597.935 672.068 625.448 675.757 651.39 679.7 C 701.396 687.11 750.184 701.19 796.45 721.563 C 806.427 726.013 820.757 731.372 827.12 740.63 C 829.119 743.538 830.263 746.923 829.16 750.439 C 827.524 755.651 823.033 758.278 818.457 760.585 C 815.899 760.852 813.96 760.911 811.47 759.991 C 801.151 756.176 791.137 750.386 781.066 745.858 C 764.544 738.611 747.602 732.361 730.332 727.142 C 694.976 716.331 658.666 708.933 621.898 705.051 C 608.556 703.614 594.762 703.844 581.59 702.217 C 574.854 701.386 567.862 698.972 563.677 693.322 C 561.742 690.71 560.981 687.992 561.542 684.732 C 562.455 679.42 567.452 675.743 571.657 673.077 z"/>
<path transform="translate(0,0)" fill="rgb(57,102,138)" d="M 572.64 1061.23 C 621.619 1058.96 674.636 1066.76 721.798 1079.81 C 737.156 1084.05 785.588 1096.43 792.697 1110.34 C 794.142 1113.17 794.698 1117.13 793.468 1120.14 C 791.314 1125.42 786.879 1127.46 781.845 1129.39 C 779.426 1129.71 776.998 1129.31 774.694 1128.54 C 766.74 1125.89 759.005 1122.21 751.137 1119.26 C 736.574 1113.9 721.753 1109.27 706.728 1105.39 C 679.973 1098.62 651.954 1094.23 624.463 1091.78 C 608.938 1090.39 584.749 1092.6 570.841 1087.95 C 567.021 1086.68 564.167 1084.73 562.445 1080.97 C 561.038 1077.88 561.616 1073.87 562.784 1070.82 C 564.688 1065.84 568.007 1063.48 572.64 1061.23 z"/>
<path transform="translate(0,0)" fill="rgb(57,102,138)" d="M 571.847 760.097 C 604.903 757.499 658.205 766.44 691.075 773.932 C 709.423 778.113 769.329 791.667 778.035 806.777 C 779.791 809.824 780.28 813.776 778.951 817.093 C 776.855 822.326 772.655 824.37 767.78 826.491 C 765.811 826.599 763.976 826.587 762.064 826.048 C 753.071 823.513 744.118 819.361 735.272 816.223 C 721.128 811.355 706.776 807.109 692.259 803.498 C 667.035 797.344 640.011 792.997 614.139 790.83 C 600.799 789.712 586 791.046 573.017 787.872 C 569.043 786.901 565.196 784.992 563.106 781.311 C 561.198 777.952 561.23 773.891 562.353 770.276 C 563.951 765.132 567.357 762.668 571.847 760.097 z"/>
<path transform="translate(0,0)" fill="rgb(57,102,138)" d="M 576.001 849.344 C 594.748 849.229 624.182 849.836 641.805 855.057 C 646.982 856.59 653.441 859.539 655.626 864.9 C 656.969 868.194 656.122 871.631 654.486 874.62 C 651.47 880.133 648.033 881.786 642.229 883.639 C 630.767 882.457 619.389 880.659 607.894 879.67 C 595.438 878.599 582.841 878.541 570.48 876.596 C 566.652 873.834 563.409 870.777 562.161 866.055 C 561.326 862.896 561.624 859.458 563.385 856.658 C 566.321 851.987 570.85 850.363 576.001 849.344 z"/>
<path transform="translate(0,0)" fill="rgb(0,29,56)" d="M 1039.98 629.914 C 1044.73 623.214 1050.81 617.186 1056.59 611.385 C 1174.26 493.228 1373.44 468.371 1532.22 467.87 C 1532.02 497.906 1531.98 527.943 1532.09 557.979 C 1532.01 569.328 1532.01 580.678 1532.1 592.028 L 1531.97 830.016 C 1380.17 935.778 1214.65 1020.33 1039.99 1081.32 L 1039.89 1069.85 C 1059.99 1065.84 1079.2 1058.21 1096.57 1047.33 C 1138.52 1020.88 1164.66 982.056 1175.52 933.936 L 1239.86 934.122 C 1252.09 934.146 1265.63 935.292 1277.68 933.174 C 1283.05 932.229 1287.71 930.01 1291.88 926.484 C 1298.29 921.056 1302.77 912.997 1303.01 904.504 C 1303.25 895.956 1299.44 887.563 1293.37 881.643 C 1289.63 878.008 1285.01 875.243 1279.93 873.992 C 1266.86 870.772 1250.28 872.616 1236.81 872.652 C 1216.38 872.707 1195.96 872.631 1175.54 872.424 C 1171.11 850.547 1163.36 830.099 1151.39 811.199 C 1125.44 770.246 1086.98 745.135 1040 734.79 L 1039.98 629.914 z"/>
<path transform="translate(0,0)" fill="rgb(254,99,0)" d="M 1296.68 680.608 C 1332.2 675.629 1365.07 700.281 1370.24 735.775 C 1375.4 771.269 1350.93 804.269 1315.46 809.624 C 1279.73 815.019 1246.42 790.317 1241.22 754.556 C 1236.01 718.795 1260.89 685.624 1296.68 680.608 z"/>
<path transform="translate(0,0)" fill="rgb(57,102,138)" d="M 1423.07 583.42 C 1428.45 583.056 1434.98 582.141 1440.29 583.085 C 1445.26 583.969 1450.48 586.843 1453.25 591.158 C 1455.01 593.915 1455.76 597.056 1454.96 600.283 C 1451.89 612.602 1433.65 612.039 1423.87 612.454 C 1326.45 616.587 1223.96 642.719 1140.44 694.1 C 1137.08 696.444 1133.44 699.315 1129.31 700.089 C 1125.25 700.851 1118.93 699.879 1115.65 697.235 C 1113.31 695.339 1112.3 693.504 1111.88 690.519 C 1111.3 686.42 1113.93 680.784 1116.63 677.823 C 1125.89 667.663 1142.34 660.131 1154.4 653.595 C 1236.44 609.151 1330.61 589.235 1423.07 583.42 z"/>
<path transform="translate(0,0)" fill="rgb(57,102,138)" d="M 1434.2 806.438 C 1439.58 806.117 1444.02 806.243 1448.68 809.261 C 1451.71 811.22 1454.88 814.602 1455.32 818.354 C 1455.77 822.183 1454.62 825.516 1452.09 828.399 C 1444.94 836.529 1433.29 835.75 1423.49 836.092 C 1417.15 836.745 1412.79 837.065 1407.12 833.679 C 1403.57 831.562 1400.3 828.171 1399.8 823.878 C 1399.39 820.329 1401.13 816.942 1403.5 814.43 C 1411.34 806.133 1423.74 806.775 1434.2 806.438 z"/>
<path transform="translate(0,0)" fill="rgb(57,102,138)" d="M 1435.67 694.448 C 1440.33 694.382 1444.59 694.591 1448.46 697.511 C 1451.87 700.088 1454.33 704.311 1454.62 708.605 C 1454.86 711.93 1453.76 715.214 1451.55 717.712 C 1444.76 725.412 1429.64 724.214 1420.31 724.549 C 1415.12 725.145 1410.75 724.036 1406.73 720.645 C 1403.87 718.234 1400.86 714.367 1400.83 710.431 C 1400.8 707.309 1401.79 704.868 1403.85 702.533 C 1411.58 693.777 1425.05 694.681 1435.67 694.448 z"/>
<path transform="translate(0,0)" fill="rgb(57,102,138)" d="M 1178.73 739.039 C 1181.85 738.958 1184.82 738.89 1187.75 740.131 C 1191.08 741.54 1194.24 744.083 1195.36 747.657 C 1196.71 751.963 1195.83 756.229 1193.64 760.103 C 1190.33 765.979 1184.96 768.338 1178.74 770.071 C 1176.15 770.04 1173.61 769.996 1171.13 769.162 C 1167.49 767.936 1164.04 765.482 1162.45 761.89 C 1160.83 758.245 1161.4 754.137 1163.03 750.61 C 1166.28 743.623 1171.85 741.403 1178.73 739.039 z"/>
<path transform="translate(0,0)" fill="rgb(254,99,0)" d="M 1532.09 557.979 C 1591.32 555.398 1673.67 553.542 1719.88 596.237 C 1735.17 610.362 1743.62 629.418 1744.18 650.196 C 1745.52 699.785 1703.99 750.443 1671.11 784.652 C 1638.48 818.594 1601.44 848.905 1563.82 877.089 C 1553.66 884.696 1543.15 893.611 1532.06 899.757 C 1423.13 971.996 1307.6 1033.74 1187.01 1084.16 C 1154.52 1098.06 1121.74 1111.25 1088.68 1123.72 C 1077.31 1128.01 1049.05 1136.83 1039.9 1141.95 C 1019.3 1150.3 998.081 1157.22 976.994 1164.25 C 946.772 1173.57 916.732 1183.44 886.329 1192.18 C 870.707 1196.68 852.644 1199.57 837.756 1205.8 C 822.479 1211 802.839 1212.9 788.796 1219.23 C 782.024 1218.68 723.606 1232.86 711.288 1235.25 C 682.821 1240.75 654.21 1245.48 625.486 1249.42 C 616.935 1250.65 595.149 1250.63 589.133 1254.67 C 571.543 1254.58 553.878 1256.51 536.302 1257.25 C 489.728 1259.21 440.948 1259.27 395.256 1248.76 C 363.954 1241.56 326.664 1227.45 308.93 1198.71 C 297.501 1180.19 296.523 1158.4 301.629 1137.64 C 319.721 1064.12 421.577 976.975 484.152 938.927 L 484.016 978.934 L 483.993 1199.95 C 625.612 1203.5 775.224 1168.98 909.908 1126.01 C 928.252 1120.16 961.196 1111.83 977.021 1104 C 997.745 1096.16 1018.79 1087.71 1039.99 1081.32 C 1214.65 1020.33 1380.17 935.778 1531.97 830.016 L 1532.1 592.028 C 1532.01 580.678 1532.01 569.328 1532.09 557.979 z"/>
<path transform="translate(0,0)" fill="rgb(255,255,254)" d="M 1532.1 592.028 C 1572.03 593.575 1625.62 594.987 1654.92 626.688 C 1664.65 637.211 1668.79 650.273 1668.06 664.448 C 1665.66 710.947 1614.39 760.079 1581.11 789.579 C 1565.3 803.589 1548.7 817.14 1531.97 830.016 L 1532.1 592.028 z"/>
<path transform="translate(0,0)" fill="rgb(0,29,56)" d="M 1589.88 703.988 C 1591.74 703.805 1593.66 703.596 1595.53 703.693 C 1599.56 703.901 1603.54 707.552 1606.05 710.429 C 1609.23 714.069 1611.77 719.801 1610.84 724.744 C 1610 729.243 1607.04 730.946 1603.56 733.408 C 1602.46 733.758 1600.88 734.376 1599.67 734.44 C 1596.54 734.604 1593.38 731.98 1591.22 729.955 C 1587.09 726.088 1583.18 719.485 1583.67 713.588 C 1584.07 708.843 1586.47 706.872 1589.88 703.988 z"/>
<path transform="translate(0,0)" fill="rgb(255,255,254)" d="M 483.993 1199.95 C 449.873 1196.48 403.234 1193.41 380.159 1164.25 C 371.308 1153.07 368.523 1139.4 370.193 1125.44 C 376.54 1072.39 443.121 1011.04 484.016 978.934 L 483.993 1199.95 z"/>
<path transform="translate(0,0)" fill="rgb(255,255,254)" d="M 976.994 1164.25 C 998.081 1157.22 1019.3 1150.3 1039.9 1141.95 L 1039.9 1291.47 C 1053.79 1280 1067.63 1268.4 1082.5 1258.2 C 1163.64 1202.55 1260 1174.32 1357 1163.2 C 1377.54 1160.84 1418.04 1156.31 1437.5 1158.06 C 1442.71 1158.53 1448.65 1160.02 1452.09 1164.28 C 1454.61 1167.4 1455.33 1171.65 1454.56 1175.51 C 1453.61 1180.28 1448.87 1183.9 1445.36 1186.81 C 1444.95 1186.87 1444.54 1186.93 1444.12 1186.99 C 1431.94 1188.62 1419.29 1188.03 1407.01 1188.49 C 1388.35 1189.29 1369.73 1190.81 1351.19 1193.04 C 1217.31 1210.31 1096.96 1260.65 1008.15 1364.99 C 949.293 1292.25 875.386 1250.97 788.796 1219.23 C 802.839 1212.9 822.479 1211 837.756 1205.8 C 852.644 1199.57 870.707 1196.68 886.329 1192.18 C 916.732 1183.44 946.772 1173.57 976.994 1164.25 z"/>
<path transform="translate(0,0)" fill="rgb(0,29,56)" d="M 837.756 1205.8 C 852.644 1199.57 870.707 1196.68 886.329 1192.18 C 916.732 1183.44 946.772 1173.57 976.994 1164.25 L 976.807 1291.76 C 945.903 1264.97 913.707 1242.63 877.202 1224.14 C 864.35 1217.63 850.239 1212.76 837.756 1205.8 z"/>
<path transform="translate(0,0)" fill="rgb(57,102,138)" d="M 1419.59 1065.43 C 1427.95 1064.99 1439.27 1063.2 1447.05 1066.76 C 1450.59 1068.37 1453.07 1071.26 1454.16 1074.99 C 1455.27 1078.8 1454.67 1082.6 1452.58 1085.95 C 1450.1 1089.94 1446.01 1092.57 1441.46 1093.58 C 1429.02 1096.34 1414.12 1094.07 1401.17 1095.14 C 1365.75 1097.92 1330.63 1103.69 1296.18 1112.39 C 1290.93 1113.83 1285.33 1115.71 1279.95 1116.49 C 1275.77 1117.1 1272.01 1116.91 1268.54 1114.28 C 1265.33 1111.83 1263.33 1108.53 1262.83 1104.5 C 1262.35 1100.69 1263.43 1097.48 1266 1094.64 C 1281.68 1077.3 1392.63 1066.91 1419.59 1065.43 z"/>
<path transform="translate(0,0)" fill="rgb(254,99,0)" d="M 993.16 777.964 C 1062.02 769.575 1124.58 818.752 1132.69 887.642 C 1140.8 956.533 1091.37 1018.89 1022.45 1026.73 C 953.918 1034.52 891.987 985.431 883.922 916.932 C 875.857 848.432 924.693 786.304 993.16 777.964 z"/>
<path transform="translate(0,0)" fill="rgb(0,29,56)" d="M 1325.31 1481.38 C 1339.72 1481.6 1354.18 1481.27 1368.6 1481.17 L 1414.01 1596.75 C 1423.17 1620.08 1431.9 1643.75 1442.35 1666.54 C 1459.66 1646.05 1475.27 1618.17 1490.78 1595.77 C 1474.63 1573.1 1457.81 1550.46 1443.06 1526.85 C 1457.82 1526.52 1472.59 1526.51 1487.35 1526.84 C 1495.73 1540.53 1504.99 1553.71 1512.59 1567.86 L 1538.7 1526.82 C 1553.15 1526.3 1567.7 1526.59 1582.16 1526.61 C 1576.24 1536.45 1536.71 1590.54 1535.51 1596.08 L 1536.83 1598.08 L 1586.74 1668.89 L 1542.6 1668.96 C 1531.93 1654.58 1521.94 1639.34 1512.32 1624.25 L 1483.86 1668.91 L 1400.77 1668.94 L 1386.33 1632.26 C 1360.24 1632.11 1334.14 1632.12 1308.05 1632.29 C 1304.26 1644.62 1299.43 1656.79 1295.07 1668.94 L 1251.86 1668.97 L 1293.74 1562.05 C 1304.24 1535.17 1314.22 1508.03 1325.31 1481.38 z"/>
<path transform="translate(0,0)" fill="rgb(255,255,254)" d="M 1346.57 1527.6 C 1350.46 1531.44 1369.27 1587.01 1373.19 1597.02 L 1348.47 1597.06 L 1321.33 1597.01 C 1330.4 1574.2 1338.73 1550.87 1346.57 1527.6 z"/>
<path transform="translate(0,0)" fill="rgb(0,29,56)" d="M 901.275 1524.27 C 902.355 1524.19 903.437 1524.15 904.518 1524.12 C 921.823 1523.6 937.134 1527.88 949.948 1540.13 C 965.026 1554.53 972.285 1575.87 972.701 1596.4 C 973.132 1617.67 966.519 1639.34 951.466 1654.76 C 940.098 1666.41 925.196 1672.62 908.939 1672.57 C 890.956 1672.52 878.2 1664.21 866.077 1651.88 C 866.259 1663.49 866.138 1675.12 866.141 1686.74 C 866.06 1698.35 866.183 1709.96 866.508 1721.56 L 828 1721.96 L 828.18 1526.42 L 865.107 1526.6 L 865.021 1548.43 C 874.646 1534.86 884.721 1527.38 901.275 1524.27 z"/>
<path transform="translate(0,0)" fill="rgb(255,255,254)" d="M 895.967 1559.21 C 903.182 1559.07 910.044 1560.26 916.253 1564.11 C 924.728 1569.36 930.079 1578.21 932.168 1587.83 C 934.748 1599.72 933.022 1613.58 925.946 1623.68 C 919.961 1632.23 912.433 1635.82 902.433 1637.58 C 895.473 1637.61 888.798 1636.35 882.791 1632.7 C 874.315 1627.55 868.834 1618.87 866.608 1609.32 C 863.861 1597.52 865.668 1583.99 872.501 1573.86 C 878.364 1565.16 885.991 1561.39 895.967 1559.21 z"/>
<path transform="translate(0,0)" fill="rgb(0,29,56)" d="M 708.541 1550.98 C 710.71 1547.16 713.109 1543.42 716.032 1540.12 C 725.072 1529.94 737.174 1524.53 750.722 1523.97 C 763.698 1523.44 776.552 1526.22 786.21 1535.44 C 793.372 1542.28 797.791 1551.42 800.025 1560.98 C 803.66 1576.54 802.145 1593.82 802.108 1609.71 C 801.981 1629.41 802.008 1649.11 802.191 1668.81 L 763.856 1668.92 C 763.743 1650.74 763.999 1632.55 764.065 1614.37 C 764.103 1603.7 764.797 1592.65 763.219 1582.09 C 762.457 1576.99 761.173 1571.5 757.825 1567.42 C 753.533 1562.2 746.682 1559.98 740.113 1559.63 C 733.797 1559.29 728.011 1561.1 723.501 1565.64 C 709.57 1579.67 713.986 1622.42 714.096 1641.5 L 714.179 1668.94 L 675.944 1668.93 C 676.192 1651.46 676.32 1633.98 676.327 1616.51 C 676.368 1605.25 677.333 1592.96 675.445 1581.81 C 674.5 1576.23 672.387 1570.68 668.522 1566.46 C 664.756 1562.34 659.629 1560.26 654.097 1560.04 C 647.303 1559.78 640.644 1561.83 635.848 1566.79 C 631.705 1571.07 629.295 1576.72 628.091 1582.49 C 624.526 1599.56 626.927 1648.61 626.989 1668.9 L 588.968 1668.94 C 588.821 1621.52 588.919 1574.1 589.26 1526.69 C 601.533 1526.63 613.807 1526.71 626.079 1526.93 L 625.78 1546.8 C 626.309 1545.93 626.834 1545.06 627.395 1544.22 C 635.357 1532.21 645.443 1527.13 659.164 1524.24 C 666.955 1523.78 674.534 1523.9 682.056 1526.27 C 694.905 1530.32 702.686 1539.35 708.541 1550.98 z"/>
<path transform="translate(0,0)" fill="rgb(0,29,56)" d="M 999.067 378.186 C 1016.26 376.367 1032.72 379.995 1046.49 390.742 C 1059.39 400.651 1067.74 415.352 1069.64 431.506 C 1073.18 462.082 1058.92 471.524 1042.09 493.066 L 1041.32 494.067 C 1039.25 513.858 1043.6 554.716 1037.95 569.853 C 1034.1 580.157 1027.23 585.172 1017.64 589.503 C 1008.55 591.225 998.828 590.884 990.943 585.518 C 967.817 569.78 979.843 519.399 975.504 494.209 C 975.431 493.784 975.347 493.361 975.269 492.937 C 964.967 479.306 954.152 471.971 949.397 454.364 C 945.173 438.729 947.487 422.048 955.806 408.152 C 965.777 391.585 980.582 382.522 999.067 378.186 z"/>
<path transform="translate(0,0)" fill="rgb(0,29,56)" d="M 339.247 1477.37 C 345.243 1476.78 351.278 1476.69 357.289 1477.11 C 384.987 1479.19 408.46 1492.84 426.343 1513.65 C 417.152 1523.11 405.651 1531.56 395.314 1539.81 C 382.443 1526.66 369.661 1517.08 350.463 1516.43 C 336.347 1515.96 322.842 1520.87 312.616 1530.67 C 300.804 1542 295.017 1558.01 294.762 1574.16 C 294.507 1590.3 299.381 1606.35 311.116 1617.9 C 321.79 1628.41 337.2 1633.87 352.095 1633.43 C 370.14 1632.91 383.953 1623.41 395.773 1610.73 L 397.511 1610.28 L 427.739 1633.55 C 411.687 1654.48 390.029 1668.1 363.787 1671.73 C 338.099 1675.3 310.346 1669.26 289.567 1653.42 C 269.109 1637.73 255.867 1614.43 252.852 1588.82 C 249.519 1562.39 255.855 1534.6 272.377 1513.44 C 289.087 1492.04 312.611 1480.52 339.247 1477.37 z"/>
<path transform="translate(0,0)" fill="rgb(0,29,56)" d="M 733.243 295.642 C 770.88 290.928 805.274 317.454 810.277 355.054 C 815.28 392.654 789.018 427.251 751.458 432.542 C 713.487 437.891 678.43 411.28 673.373 373.27 C 668.315 335.259 695.195 300.408 733.243 295.642 z"/>
<path transform="translate(0,0)" fill="rgb(0,29,56)" d="M 501.138 1524.42 C 517.782 1524.36 535.044 1526.42 547.819 1538.3 C 554.587 1544.6 559.114 1552.9 561.431 1561.8 C 565.512 1577.48 564.069 1595.2 564.032 1611.26 C 563.854 1630.48 563.923 1649.7 564.239 1668.92 L 526.982 1668.96 L 526.839 1654.76 C 524.362 1657.37 521.863 1660.1 519.015 1662.3 C 507.75 1670.99 492.503 1674.24 478.585 1671.89 C 464.647 1669.53 453.489 1662.02 445.446 1650.56 C 439.589 1640.96 437.459 1630.28 439.122 1619.12 C 440.704 1608.51 445.574 1599.05 454.354 1592.66 C 474.06 1578.32 504.61 1582.61 526.894 1586.6 C 526.677 1581.09 526.515 1574.9 523.804 1569.97 C 520.782 1564.47 516.175 1560.81 510.145 1559.08 C 494.145 1554.51 477.409 1560.7 463.708 1568.62 C 458.367 1559.7 452.527 1551.09 446.215 1542.83 C 463.606 1530.54 480.008 1525.72 501.138 1524.42 z"/>
<path transform="translate(0,0)" fill="rgb(255,255,254)" d="M 491.754 1609.19 C 503.637 1608.53 515.097 1609.37 526.901 1610.79 C 526.705 1616.98 527.17 1624.75 524.603 1630.42 C 521.732 1636.76 516.491 1638.89 510.338 1641.27 C 502.061 1643.18 493.083 1643.43 485.486 1639.13 C 480.952 1636.56 477.076 1632.27 475.801 1627.13 C 475.003 1623.92 475.381 1620.53 477.137 1617.69 C 480.559 1612.16 485.745 1610.53 491.754 1609.19 z"/>
<path transform="translate(0,0)" fill="rgb(0,29,56)" d="M 1086.1 1526.49 L 1116.9 1526.58 C 1116.65 1574.01 1116.68 1621.45 1116.98 1668.88 C 1104.37 1668.64 1091.72 1668.92 1079.11 1669 L 1078.92 1651.67 C 1077.73 1653.18 1076.51 1654.67 1075.27 1656.14 C 1066.75 1666.1 1054.52 1672.11 1041.43 1672.78 C 1028.08 1673.62 1014.98 1668.84 1005.29 1659.61 C 990.464 1645.24 988.942 1627.01 988.523 1607.7 C 988.082 1580.75 988.027 1553.59 988.793 1526.65 C 1001.53 1526.39 1014.33 1526.68 1027.07 1526.75 C 1027.01 1545.73 1023.53 1612.68 1031.09 1625.93 C 1034.2 1631.38 1039.36 1635.06 1045.42 1636.53 C 1052.7 1638.3 1060.87 1636.92 1067.07 1632.68 C 1071.91 1629.39 1075.41 1624.47 1076.94 1618.82 C 1078.95 1611.44 1078.33 1602.53 1078.33 1594.91 C 1078.32 1576.48 1076.13 1545.41 1079.1 1528.13 C 1081.17 1526.1 1083.29 1526.65 1086.1 1526.49 z"/>
<path transform="translate(0,0)" fill="rgb(0,29,56)" d="M 1183.59 1524.29 C 1183.79 1524.26 1183.99 1524.23 1184.19 1524.21 C 1208.18 1522.24 1228.69 1529.08 1247.29 1544.04 C 1240.19 1552.19 1233.47 1560.63 1226.73 1569.08 C 1221.31 1564.97 1215.69 1561.5 1209.25 1559.21 C 1202.42 1556.79 1187.47 1554.58 1180.73 1558.29 C 1177.54 1560.05 1175.14 1562.77 1174.05 1566.22 C 1175.83 1578.45 1206.73 1583.2 1217.03 1587 C 1224.02 1589.57 1230.8 1592.91 1236.48 1597.78 C 1244.11 1604.19 1248.8 1613.43 1249.48 1623.37 C 1250.32 1634.6 1246.47 1647.42 1238.78 1655.81 C 1227.19 1668.46 1210.97 1671.62 1194.69 1672.38 C 1169.65 1672.07 1151.86 1665.17 1132.5 1649.39 C 1139.03 1641 1146.29 1633.27 1152.62 1624.7 C 1166.59 1634.86 1182.09 1642.35 1199.9 1639.94 C 1204.46 1639.32 1210.83 1636.45 1213.2 1632.23 C 1213.97 1630.86 1214.5 1629.63 1213.98 1628.1 C 1210.24 1616.87 1169.13 1609.56 1156.99 1601.73 C 1147.91 1595.87 1141.03 1587.03 1138.94 1576.29 C 1136.83 1565.43 1139.87 1553.02 1146.19 1544.01 C 1155.14 1531.27 1168.96 1526.62 1183.59 1524.29 z"/>
<path transform="translate(0,0)" fill="rgb(0,29,56)" d="M 1703.19 1524.33 C 1703.37 1524.32 1703.54 1524.29 1703.71 1524.28 C 1727.17 1522.93 1748.33 1528.47 1766.65 1543.6 C 1760.12 1552.25 1752.93 1560.6 1745.87 1568.83 C 1738.91 1563.88 1732.29 1560.23 1723.92 1558.12 C 1716.72 1556.29 1702.47 1555.19 1696.19 1560.15 C 1693.86 1562 1693.77 1562.77 1693.28 1565.51 C 1698.18 1583.09 1738.52 1582.68 1756.32 1597.96 C 1763.97 1604.52 1767.71 1613.86 1768.38 1623.78 C 1769.2 1635.84 1765.82 1646.79 1757.6 1655.76 C 1746.31 1668.1 1730.88 1671.69 1714.9 1672.16 C 1689.23 1672.38 1671.9 1664.5 1651.99 1648.86 C 1658.95 1640.91 1666.47 1632.84 1672.15 1623.93 C 1686.15 1634.63 1700.13 1641.62 1718.32 1640.07 C 1722.74 1639.69 1727.58 1638.32 1730.18 1634.39 C 1731.56 1632.3 1731.81 1629.64 1731.27 1627.25 C 1728.72 1615.87 1702.49 1612.42 1692.94 1609.24 C 1686.56 1607.12 1680.24 1604.39 1674.68 1600.56 C 1666.51 1594.93 1660.29 1587.01 1658.56 1577.07 C 1656.59 1565.72 1659.58 1551.39 1666.7 1542.17 C 1675.72 1530.49 1689.26 1526.29 1703.19 1524.33 z"/>
<path transform="translate(0,0)" fill="rgb(0,29,56)" d="M 1637.25 981.56 C 1668.16 976.94 1696.98 998.175 1701.73 1029.06 C 1706.47 1059.94 1685.36 1088.85 1654.49 1093.72 C 1623.45 1098.63 1594.33 1077.36 1589.56 1046.3 C 1584.79 1015.23 1606.17 986.206 1637.25 981.56 z"/>
<path transform="translate(0,0)" fill="rgb(0,29,56)" d="M 361.866 792.607 C 391.911 789.053 419.136 810.563 422.629 840.615 C 426.122 870.668 404.556 897.849 374.497 901.28 C 344.524 904.702 317.439 883.212 313.956 853.246 C 310.473 823.28 331.907 796.151 361.866 792.607 z"/>
<path transform="translate(0,0)" fill="rgb(0,29,56)" d="M 987.683 297.452 C 994.082 297.077 1000.61 297.166 1007.02 297.154 C 1076.56 297.015 1148.73 308.414 1214.13 332.248 C 1221.53 334.945 1232.97 336.85 1238.45 342.791 C 1240.53 345.045 1241.45 347.874 1240.95 350.92 C 1240.43 353.953 1238.72 356.652 1236.19 358.412 C 1233.31 360.39 1230.42 360.549 1227.1 359.764 C 1214.43 356.761 1201.7 349.625 1189.14 345.56 C 1162.2 336.837 1134.42 331.004 1106.54 326.289 C 1054.77 316.672 999.794 316.469 947.502 321.246 C 927.662 322.892 907.932 325.658 888.404 329.529 C 876.598 331.883 864.839 335.41 852.998 337.382 C 850.295 337.833 846.725 338.326 844.213 337.003 C 841.115 335.371 838.952 332.47 838.388 328.993 C 837.923 326.129 838.672 323.705 840.398 321.423 C 844.535 315.952 857.157 314.52 863.511 313.061 C 904.439 303.664 945.764 299.038 987.683 297.452 z"/>
<path transform="translate(0,0)" fill="rgb(0,29,56)" d="M 1309.49 331.411 C 1336.64 330.078 1359.75 350.982 1361.13 378.134 C 1362.52 405.286 1341.66 428.433 1314.51 429.869 C 1287.28 431.31 1264.06 410.381 1262.67 383.156 C 1261.29 355.931 1282.26 332.748 1309.49 331.411 z"/>
<path transform="translate(0,0)" fill="rgb(0,29,56)" d="M 1598.12 1526.38 C 1610.75 1526.3 1623.41 1526.7 1636.04 1526.88 L 1635.95 1668.92 L 1597.94 1668.96 C 1597.99 1621.5 1596.92 1573.8 1598.12 1526.38 z"/>
<path transform="translate(0,0)" fill="rgb(0,29,56)" d="M 312.836 915.931 C 316.959 915.941 321.42 915.677 324.401 919.095 C 328.931 924.288 324.688 938.713 323.615 944.964 C 319.358 968.59 317.402 992.572 317.772 1016.57 C 317.896 1028.88 320.23 1042.66 318.631 1054.74 C 318.035 1059.25 315.778 1060.94 312.329 1063.46 C 310.695 1063.66 308.641 1063.98 307.002 1063.64 C 304.347 1063.07 302.356 1061.84 300.84 1059.57 C 292.291 1046.77 300.772 956.726 303.871 937.422 C 305.177 929.286 305.721 921.088 312.836 915.931 z"/>
<path transform="translate(0,0)" fill="rgb(0,29,56)" d="M 431.896 656.908 C 436.074 656.634 440.764 656.689 443.98 659.85 C 446.435 662.263 447.124 665.018 446.858 668.392 C 446.307 675.386 433.886 685.605 429.394 691.489 C 420.553 703.074 412.579 716.301 405.343 728.955 C 399.385 739.375 392.078 760.363 383.559 767.558 C 381.707 767.914 379.36 768.413 377.476 768.191 C 375.01 767.9 372.735 766.982 371.197 764.958 C 369.391 762.581 369.233 759.549 369.524 756.695 C 371.365 738.641 417.188 669.217 431.896 656.908 z"/>
<path transform="translate(0,0)" fill="rgb(0,29,56)" d="M 1642.95 833.73 C 1644.37 833.641 1644.43 833.611 1646.03 833.649 C 1649.55 833.734 1652.34 834.533 1654.75 837.307 C 1661.95 845.626 1671.25 933.395 1669.54 948.314 C 1669.05 952.554 1665.82 954.563 1662.74 957.055 C 1658.85 957.226 1655.2 957.411 1652.08 954.61 C 1649.07 951.903 1648.39 947.72 1648.24 943.88 C 1647.41 923.226 1646.36 903.322 1643.32 882.795 C 1641.76 872.299 1636.07 852.87 1636.36 843.578 C 1636.52 838.703 1639.52 836.697 1642.95 833.73 z"/>
<path transform="translate(0,0)" fill="rgb(0,29,56)" d="M 1626.94 1121.85 C 1627.62 1121.88 1628.29 1121.89 1628.96 1121.93 C 1632.48 1122.13 1636.3 1123.32 1638.43 1126.35 C 1640.54 1129.37 1639.89 1132.88 1639.08 1136.2 C 1635.16 1152.43 1614.23 1199.48 1604.39 1212.6 C 1602.74 1214.8 1600.59 1216.28 1598.28 1217.7 C 1594.45 1217.39 1590.87 1217.19 1588.31 1213.86 C 1585.87 1210.68 1586.35 1206.64 1587.21 1203 C 1588.03 1199.5 1589.62 1196.41 1591.26 1193.24 C 1597.77 1180.65 1604.63 1168.01 1610 1154.88 C 1613.65 1145.93 1615.94 1136.08 1620.57 1127.57 C 1622.01 1124.91 1624.44 1123.41 1626.94 1121.85 z"/>
<path transform="translate(0,0)" fill="rgb(0,29,56)" d="M 1610.55 1464.21 C 1622.62 1460.81 1635.15 1467.87 1638.49 1479.96 C 1641.82 1492.05 1634.68 1504.55 1622.57 1507.81 C 1610.56 1511.04 1598.2 1503.98 1594.89 1491.99 C 1591.59 1480 1598.58 1467.59 1610.55 1464.21 z"/>
<path transform="translate(0,0)" fill="rgb(0,29,56)" d="M 524.892 1324.58 C 531.718 1322.52 539.125 1324.3 544.262 1329.25 C 549.399 1334.2 551.465 1341.53 549.665 1348.43 C 547.866 1355.33 542.481 1360.72 535.583 1362.53 C 525.187 1365.25 514.526 1359.14 511.612 1348.8 C 508.697 1338.46 514.604 1327.68 524.892 1324.58 z"/>
<path transform="translate(0,0)" fill="rgb(0,29,56)" d="M 1516.17 1324.63 C 1526.57 1321.54 1537.51 1327.44 1540.63 1337.83 C 1543.76 1348.22 1537.89 1359.18 1527.52 1362.34 C 1517.09 1365.52 1506.06 1359.62 1502.92 1349.18 C 1499.78 1338.74 1505.72 1327.74 1516.17 1324.63 z"/>
<path transform="translate(0,0)" fill="rgb(0,29,56)" d="M 859.696 415.459 C 870.379 414.063 880.158 421.628 881.489 432.319 C 882.821 443.01 875.197 452.743 864.498 454.011 C 853.89 455.267 844.257 447.722 842.937 437.121 C 841.616 426.52 849.104 416.843 859.696 415.459 z"/>
<path transform="translate(0,0)" fill="rgb(0,29,56)" d="M 1176.07 427.515 C 1186.67 426.686 1195.96 434.544 1196.9 445.133 C 1197.84 455.722 1190.08 465.095 1179.5 466.149 C 1172.56 466.841 1165.78 463.75 1161.75 458.053 C 1157.72 452.357 1157.06 444.935 1160.02 438.616 C 1162.98 432.298 1169.11 428.059 1176.07 427.515 z"/>
</svg>